<?xml version="1.0" encoding="iso-8859-1"?>
<!-- Generator: Adobe Illustrator 18.0.0, SVG Export Plug-In . SVG Version: 6.00 Build 0)  -->
<!DOCTYPE svg PUBLIC "-//W3C//DTD SVG 1.1//EN" "http://www.w3.org/Graphics/SVG/1.1/DTD/svg11.dtd">
<svg version="1.1" id="Capa_1" xmlns="http://www.w3.org/2000/svg" xmlns:xlink="http://www.w3.org/1999/xlink" x="0px" y="0px"
	 viewBox="0 0 54.711 54.711" style="enable-background:new 0 0 54.711 54.711;" xml:space="preserve">
<g>
	<path d="M50.877,30.841c0.008-0.149-0.023-0.3-0.095-0.427c0-0.107-0.017-0.217-0.075-0.33C47.846,24.524,34.14,3.929,30.143,0.661
		c-0.157-0.129-0.326-0.166-0.487-0.153c-2.916-2.628-8.321,5.716-9.606,7.368c-2.94,3.776-5.988,7.359-9.153,10.949
		c-1.825,2.07-4.231,4.579-5.3,7.274c-0.895,1.142-1.669,2.159-2.262,2.979c-0.269,0.373-0.071,0.729,0.252,0.887
		c0.007,0.196,0.105,0.386,0.349,0.498c2.484,1.149,4.17,3.441,6.372,5.007c0.152,0.108,0.301,0.137,0.436,0.115
		c0.28,0.094,0.62,0.042,0.835-0.26c0.208-0.292,0.453-0.619,0.73-0.975c0.088,4.19,0.281,8.378,0.224,12.572
		c-0.018,1.318-0.815,4.207-0.145,5.826c-0.096,0.182-0.128,0.399-0.026,0.629c0.847,1.903,6.072,0.929,7.643,0.917
		c6.938-0.052,14.045,0.961,20.941,0.01c0.393-0.054,0.594-0.368,0.626-0.682c1.408-0.938,1.199-2.895,0.941-5.306
		c-0.56-5.259-0.818-10.731-0.816-16.075c0.733,1.148,1.402,2.159,1.925,2.875c0.255,0.349,0.672,0.353,0.964,0.183
		c0.066-0.015,0.133-0.027,0.202-0.066c0.125-0.071,0.246-0.149,0.37-0.222c1.69,0.368,5.365-2.345,6.133-3.046
		C51.763,31.531,51.373,30.921,50.877,30.841z M40.658,15.421c0.476,0.882,0.971,1.754,1.473,2.621
		c-0.579-0.962-1.318-1.986-2.126-3.038c-0.343-0.67-0.665-1.351-0.999-2.026C39.667,13.831,40.247,14.66,40.658,15.421z
		 M29.082,11.948c0.219,0.437,0.451,0.867,0.678,1.3c-0.278-0.369-0.566-0.732-0.851-1.096
		C28.967,12.085,29.023,12.015,29.082,11.948z M23.83,7.032c0.05-0.033,0.102-0.063,0.153-0.094
		c-0.041,0.123-0.088,0.245-0.137,0.366c-0.124,0.128-0.255,0.246-0.376,0.377c-0.999,0.719-1.942,1.582-2.845,2.472
		C21.676,9.097,22.744,8.053,23.83,7.032z M8.16,24.903c1.252-1.588,2.545-3.127,3.909-4.609
		C10.895,22.003,9.586,23.627,8.16,24.903z M11.033,27.617c-0.173,0.196-0.349,0.368-0.525,0.529
		c0.031-0.036,0.063-0.071,0.094-0.107c1.509-1.716,3.082-3.358,4.591-5.067c0.318-0.245,0.633-0.493,0.944-0.741
		c0.017,0.01,0.035,0.018,0.053,0.026C14.534,24.097,12.67,25.761,11.033,27.617z M23.018,52.523
		c0.201-0.456,0.387-0.918,0.565-1.383c-0.042,0.313-0.07,0.63-0.057,0.954c0.008,0.185,0.101,0.349,0.232,0.472
		C23.513,52.551,23.265,52.536,23.018,52.523z M24.752,45.23c-0.399,0.313-0.729,0.698-1.03,1.104
		c0.376-0.741,0.894-1.29,1.629-1.499C25.142,44.946,24.947,45.077,24.752,45.23z M26.388,52.669
		c-0.071-0.001-0.142-0.002-0.213-0.004c-0.132-0.003-0.268-0.012-0.401-0.015c0.108-0.03,0.211-0.083,0.291-0.176
		c0.236-0.276,0.448-0.565,0.646-0.86C26.589,51.965,26.479,52.316,26.388,52.669z M25.916,46.1
		c-0.001-0.014-0.007-0.024-0.009-0.039c0.131-0.085,0.281-0.141,0.439-0.184c-0.163,0.563-0.331,1.123-0.519,1.675
		C25.912,47.079,25.957,46.598,25.916,46.1z M28.84,52.715l-0.635-0.012c0.335-0.647,0.656-1.303,0.96-1.964
		c-0.106,0.59-0.219,1.179-0.326,1.77C28.826,52.584,28.834,52.649,28.84,52.715z M29.607,46.024
		c-0.063,0.183-0.137,0.361-0.202,0.544c0.005-0.43-0.037-0.867-0.131-1.311c0.172,0.158,0.333,0.329,0.48,0.517
		C29.694,45.843,29.641,45.924,29.607,46.024z M30.409,52.745c-0.071-0.001-0.143-0.002-0.214-0.004
		c0.186-0.606,0.369-1.211,0.566-1.811C30.772,51.606,30.678,52.255,30.409,52.745z M39.218,52.851
		c-0.015,0.001-0.025,0.008-0.04,0.009c-0.017-0.001-0.028-0.009-0.045-0.009c-1.932-0.004-3.862-0.028-5.794-0.057
		c-0.008-4.559-0.363-10.272-6.039-10.742c-3.193-0.265-4.923,1.984-5.816,4.694c-0.733,1.815-0.993,3.957-1.025,5.637
		c-1.608-0.073-3.211-0.097-4.777,0.048c-1.941,0.178-2.144-0.483-1.932-2.304c0.222-1.898,0.164-3.856,0.164-5.763
		c0-3.892-0.213-7.78-0.269-11.671c4.87-5.857,12.193-16.811,14.118-19.17c2.14,1.896,10.314,12.89,12.575,16.549
		c-0.041,3.7,0.179,7.383,0.426,11.074c0.143,2.141,0.266,4.281,0.341,6.424C41.164,49.247,42.416,52.749,39.218,52.851z
		 M41.705,22.023c-0.13-0.269-0.258-0.538-0.388-0.806c0.306,0.478,0.62,0.956,0.944,1.423c0.04,0.1,0.081,0.207,0.125,0.324
		C42.158,22.657,41.928,22.343,41.705,22.023z"/>
</g>
<g>
</g>
<g>
</g>
<g>
</g>
<g>
</g>
<g>
</g>
<g>
</g>
<g>
</g>
<g>
</g>
<g>
</g>
<g>
</g>
<g>
</g>
<g>
</g>
<g>
</g>
<g>
</g>
<g>
</g>
</svg>
